<?xml version="1.0" standalone="no"?>
<!DOCTYPE svg PUBLIC "-//W3C//DTD SVG 20010904//EN"
 "http://www.w3.org/TR/2001/REC-SVG-20010904/DTD/svg10.dtd">
<svg version="1.0" xmlns="http://www.w3.org/2000/svg"
 width="690.000000pt" height="690.000000pt" viewBox="0 0 690.000000 690.000000"
 preserveAspectRatio="xMidYMid meet">
<metadata>
Created by potrace 1.11, written by Peter Selinger 2001-2013
</metadata>
<g transform="translate(0.000000,690.000000) scale(0.100000,-0.100000)"
fill="#000000" stroke="none">
<path d="M2864 6275 c-615 -129 -1174 -456 -1593 -933 -63 -72 -69 -84 -28
-58 33 22 178 56 237 56 97 0 181 -27 302 -97 62 -36 202 -114 311 -174 201
-111 496 -280 576 -331 25 -15 49 -28 53 -28 4 0 8 267 8 594 0 636 3 684 51
778 21 42 142 170 189 201 32 20 28 20 -106 -8z"/>
<path d="M3935 6277 c62 -45 153 -139 179 -187 53 -98 56 -132 56 -782 0 -407
3 -598 10 -598 18 0 82 36 211 118 68 44 241 144 384 222 143 79 276 153 296
165 71 45 177 94 240 110 94 25 225 17 302 -18 l58 -27 -43 52 c-70 84 -236
248 -334 329 -381 317 -835 532 -1314 623 l-75 15 30 -22z"/>
<path d="M731 4415 c-61 -159 -129 -467 -150 -679 -14 -140 -14 -422 0 -562
21 -215 89 -521 152 -684 21 -54 26 -60 26 -35 2 47 39 191 61 234 34 67 118
142 235 210 61 35 241 141 400 236 407 241 477 281 502 289 23 7 52 36 35 36
-5 0 -70 37 -143 81 -182 111 -578 338 -723 417 -66 35 -138 76 -161 92 -110
75 -190 218 -204 365 l-7 60 -23 -60z"/>
<path d="M6132 4377 c-22 -129 -95 -254 -185 -316 -23 -15 -87 -53 -142 -83
-170 -93 -511 -291 -703 -407 -101 -61 -188 -111 -193 -111 -20 0 4 -21 50
-45 27 -13 91 -51 142 -83 108 -68 513 -302 702 -406 71 -38 148 -87 173 -109
82 -73 130 -161 157 -294 l14 -68 32 100 c99 305 141 576 141 900 0 259 -26
472 -85 705 -23 94 -83 290 -89 290 -1 0 -8 -33 -14 -73z"/>
<path d="M1299 1542 c340 -384 813 -688 1304 -836 119 -36 347 -90 353 -83 2
2 -16 18 -40 35 -56 40 -126 133 -155 205 l-22 55 -137 47 c-324 111 -678 320
-904 533 l-68 65 -138 1 c-116 2 -146 5 -192 24 -30 12 -57 22 -59 22 -1 0 24
-31 58 -68z"/>
<path d="M5585 1588 c-48 -17 -85 -21 -182 -22 l-122 -1 -43 -41 c-251 -240
-610 -452 -968 -570 -70 -23 -114 -43 -117 -53 -25 -87 -102 -191 -188 -253
l-40 -30 40 7 c96 16 294 69 415 110 401 138 758 357 1064 654 94 92 215 222
204 220 -1 0 -30 -10 -63 -21z"/>
</g>
</svg>
